# xmcd
#
# Track frame offsets:
#	150
#	15524
#	33805
#	52443
#	67786
#	82726
#	98554
#	113924
#	127861
#	146499
#	163197
#	181913
#
# Disc length: 2602 seconds
#
# Revision: 0
# Processed by: cddbd v1.5.2PL0 Copyright (c) Steve Scherf et al.
# Submitted via: EasyCDDAExtractor 15.2.5.1
#
DISCID=8e0a280c
DTITLE=Harmony James - Handfuls Of Sky
DYEAR=2011
DGENRE=Country
TTITLE0=Don't Say It
TTITLE1=Emmylou's Guitar
TTITLE2=Great Grey Cloud
TTITLE3=Pride
TTITLE4=Flying Too Close To The Sun
TTITLE5=Wait This Long
TTITLE6=Reach For You
TTITLE7=Fires Of Hell
TTITLE8=Hauling Cane
TTITLE9=So Long
TTITLE10=Roll With It
TTITLE11=The Girtl You See
EXTD=
EXTT0=
EXTT1=
EXTT2=
EXTT3=
EXTT4=
EXTT5=
EXTT6=
EXTT7=
EXTT8=
EXTT9=
EXTT10=
EXTT11=
PLAYORDER=
